<?xml version="1.0" encoding="UTF-8"?>
<svg xmlns="http://www.w3.org/2000/svg" xmlns:xlink="http://www.w3.org/1999/xlink" width="375pt" height="374.999991pt" viewBox="0 0 375 374.999991" version="1.2">
<g id="surface1">
<path style=" stroke:none;fill-rule:nonzero;fill:rgb(100%,100%,100%);fill-opacity:1;" d="M 30.117188 163.609375 L 30.03125 174.964844 L 23.820312 175.054688 L 17.578125 175.113281 L 17.578125 152.574219 L 0 152.574219 L 0 207.308594 L 17.285156 207.308594 L 17.34375 194.929688 L 17.433594 182.578125 L 30.03125 182.578125 L 30.117188 195.074219 L 30.175781 207.601562 L 47.460938 207.601562 L 47.460938 152.28125 L 30.175781 152.28125 Z M 30.117188 163.609375 "/>
<path style=" stroke:none;fill-rule:nonzero;fill:rgb(100%,100%,100%);fill-opacity:1;" d="M 339.550781 179.796875 L 339.550781 207.308594 L 355.078125 207.308594 L 355.078125 152.28125 L 339.550781 152.28125 Z M 339.550781 179.796875 "/>
<path style=" stroke:none;fill-rule:nonzero;fill:rgb(100%,100%,100%);fill-opacity:1;" d="M 359.472656 179.941406 L 359.472656 207.601562 L 375 207.601562 L 375 152.28125 L 359.472656 152.28125 Z M 359.472656 179.941406 "/>
<path style=" stroke:none;fill-rule:nonzero;fill:rgb(100%,100%,100%);fill-opacity:1;" d="M 70.195312 166.039062 C 61.320312 167.445312 55.019531 172.390625 52.53125 179.914062 C 51.828125 182.050781 51.738281 182.722656 51.738281 186.675781 C 51.738281 189.894531 51.855469 191.59375 52.238281 193.085938 C 54.082031 200.433594 60.234375 206.402344 67.648438 208.042969 C 74.265625 209.476562 82.058594 208.628906 87.011719 205.90625 C 89.472656 204.558594 93.046875 200.988281 94.394531 198.527344 C 98.113281 191.796875 98.054688 182.167969 94.277344 175.757812 C 93.75 174.847656 92.3125 173.09375 91.113281 171.894531 C 88.59375 169.347656 85.488281 167.621094 81.589844 166.625 C 78.894531 165.921875 72.921875 165.628906 70.195312 166.039062 Z M 76.960938 172.214844 C 78.25 173.472656 78.984375 174.90625 79.539062 177.21875 C 80.183594 179.914062 80.15625 195.046875 79.539062 197.503906 C 77.636719 204.792969 72.304688 205.613281 69.640625 199.054688 C 69.054688 197.621094 68.996094 196.890625 68.90625 188.605469 C 68.761719 176.78125 69.171875 174.703125 72.101562 172.066406 C 73.210938 171.042969 73.417969 170.957031 74.617188 171.101562 C 75.585938 171.191406 76.199219 171.511719 76.960938 172.214844 Z M 76.960938 172.214844 "/>
<path style=" stroke:none;fill-rule:nonzero;fill:rgb(100%,100%,100%);fill-opacity:1;" d="M 165.46875 166.183594 C 159.402344 167.328125 153.925781 170.808594 151.054688 175.375 C 149.148438 178.363281 147.949219 183.042969 147.949219 187.433594 C 147.949219 198.46875 155.214844 206.902344 166.113281 208.511719 C 169.421875 208.980469 175.808594 208.6875 178.738281 207.953125 C 183.015625 206.8125 188.144531 203.796875 189.8125 201.367188 C 190.664062 200.140625 191.394531 198.148438 191.71875 196.246094 L 191.894531 195.28125 L 188.171875 195.367188 L 184.480469 195.457031 L 184.128906 196.832031 C 183.515625 199.320312 181.785156 201.015625 178.769531 202.128906 C 177.390625 202.628906 176.425781 202.746094 173.4375 202.773438 C 170.039062 202.773438 169.6875 202.714844 168.308594 201.984375 C 166.640625 201.105469 165.703125 200.199219 165.261719 199.027344 C 165.085938 198.558594 164.941406 196.304688 164.941406 194.019531 L 164.941406 189.835938 L 179.0625 189.980469 L 193.152344 190.128906 L 192.976562 186.644531 C 192.390625 175.640625 186.738281 168.554688 176.804688 166.476562 C 173.523438 165.804688 168.25 165.65625 165.46875 166.183594 Z M 171.972656 171.015625 C 173.289062 171.367188 174.695312 172.800781 175.457031 174.527344 C 176.132812 176.078125 176.71875 180.148438 176.601562 182.429688 L 176.511719 184.039062 L 170.742188 184.128906 L 164.941406 184.1875 L 164.941406 180.847656 C 164.941406 175.40625 166.375 172.15625 169.1875 171.160156 C 170.625 170.664062 170.683594 170.664062 171.972656 171.015625 Z M 171.972656 171.015625 "/>
<path style=" stroke:none;fill-rule:nonzero;fill:rgb(100%,100%,100%);fill-opacity:1;" d="M 308.027344 166.183594 C 305.125 166.710938 304.070312 167.0625 301.023438 168.613281 C 299.03125 169.640625 297.859375 170.488281 296.191406 172.183594 C 293.671875 174.703125 292.46875 176.75 291.328125 180.527344 C 290.652344 182.78125 290.535156 183.746094 290.507812 187.113281 C 290.476562 191.652344 290.769531 193.203125 292.382812 196.625 C 295.078125 202.421875 299.472656 206.140625 305.710938 207.953125 C 307.792969 208.570312 308.640625 208.628906 313.476562 208.597656 C 319.714844 208.570312 321.882812 208.128906 325.925781 206.140625 C 331.140625 203.535156 333.425781 200.839844 334.160156 196.390625 L 334.363281 195.308594 L 327.011719 195.308594 L 326.804688 196.246094 C 326.25 198.820312 324.257812 200.957031 321.414062 202.101562 C 320.039062 202.628906 319.160156 202.746094 316.113281 202.746094 C 312.65625 202.773438 312.363281 202.714844 310.75 201.953125 C 309.578125 201.367188 308.816406 200.722656 308.261719 199.90625 C 307.5 198.761719 307.46875 198.527344 307.382812 194.285156 L 307.292969 189.835938 L 321.355469 189.980469 L 335.449219 190.128906 L 335.449219 187.464844 C 335.449219 178.742188 331.492188 171.660156 324.753906 168.351562 C 320.007812 166.039062 313.503906 165.191406 308.027344 166.183594 Z M 314.382812 171.015625 C 315.027344 171.191406 315.9375 171.835938 316.640625 172.59375 C 318.28125 174.378906 318.835938 176.371094 318.867188 180.675781 L 318.894531 184.039062 L 313.125 184.128906 L 307.324219 184.1875 L 307.324219 181.464844 C 307.324219 175.640625 308.757812 172.15625 311.570312 171.160156 C 313.007812 170.664062 313.066406 170.664062 314.382812 171.015625 Z M 314.382812 171.015625 "/>
<path style=" stroke:none;fill-rule:nonzero;fill:rgb(100%,100%,100%);fill-opacity:1;" d="M 126.296875 166.476562 C 123.542969 167.09375 120.90625 168.4375 119.089844 170.164062 L 117.480469 171.6875 L 117.480469 167.210938 L 101.074219 167.210938 L 101.074219 207.308594 L 117.480469 207.308594 L 117.480469 178.097656 L 119.03125 176.691406 C 120.820312 175.082031 121.992188 174.527344 123.632812 174.527344 C 125.273438 174.527344 126.386719 175.171875 127.03125 176.488281 C 127.558594 177.511719 127.585938 178.597656 127.675781 192.441406 L 127.761719 207.308594 L 143.554688 207.308594 L 143.554688 191.417969 C 143.554688 173.765625 143.582031 173.914062 141.648438 171.132812 C 140.390625 169.316406 138.25 167.765625 135.789062 166.886719 C 133.503906 166.066406 128.933594 165.890625 126.296875 166.476562 Z M 126.296875 166.476562 "/>
<path style=" stroke:none;fill-rule:nonzero;fill:rgb(100%,100%,100%);fill-opacity:1;" d="M 191.101562 167.5625 C 191.191406 167.765625 194.765625 176.925781 199.070312 187.933594 C 207.773438 210.207031 207.304688 208.453125 205.605469 211.816406 C 204.082031 214.863281 202.292969 216.675781 200.828125 216.675781 C 200.417969 216.675781 200.417969 216.589844 200.859375 215.769531 C 201.765625 214.011719 201.238281 210.5 199.863281 208.980469 C 198.164062 207.105469 194.003906 206.609375 191.367188 207.953125 C 187.734375 209.828125 186.707031 215.332031 189.34375 218.785156 C 191.21875 221.214844 195.585938 222.734375 199.65625 222.414062 C 203.640625 222.09375 207.949219 219.136719 210.320312 215.125 C 210.878906 214.160156 215.273438 203.769531 220.078125 192 C 224.910156 180.207031 228.953125 170.457031 229.070312 170.339844 C 229.1875 170.222656 231.855469 178.449219 234.988281 188.636719 L 240.671875 207.164062 L 247.558594 207.25 L 254.472656 207.308594 L 257.34375 196.714844 C 258.925781 190.859375 260.332031 185.914062 260.449219 185.707031 C 260.535156 185.503906 262.148438 190.246094 264.023438 196.246094 L 267.421875 207.164062 L 274.128906 207.25 L 280.839844 207.308594 L 286.316406 187.464844 C 289.335938 176.515625 291.796875 167.503906 291.796875 167.414062 C 291.796875 167.296875 290.097656 167.210938 287.988281 167.210938 L 284.207031 167.210938 L 283.886719 168.292969 C 283.738281 168.90625 282.449219 173.589844 281.042969 178.683594 C 279.636719 183.804688 278.4375 187.933594 278.378906 187.84375 C 278.320312 187.785156 276.855469 183.160156 275.125 177.542969 L 271.992188 167.355469 L 257.695312 167.355469 L 254.882812 177.660156 C 253.359375 183.308594 252.011719 188.019531 251.953125 188.109375 C 251.863281 188.167969 250.339844 183.542969 248.554688 177.804688 L 245.300781 167.355469 L 234.316406 167.269531 L 223.300781 167.210938 L 222.539062 169.023438 C 222.128906 170.046875 220.457031 174.03125 218.875 177.894531 C 217.265625 181.757812 215.859375 184.890625 215.742188 184.859375 C 215.625 184.832031 214.011719 180.847656 212.136719 176.019531 L 208.738281 167.210938 L 199.832031 167.210938 C 192.859375 167.210938 190.984375 167.296875 191.101562 167.5625 Z M 191.101562 167.5625 "/>
</g>
</svg>
