<?xml version="1.0" encoding="UTF-8"?>
<svg xmlns="http://www.w3.org/2000/svg" xmlns:xlink="http://www.w3.org/1999/xlink" width="375pt" height="374.999991pt" viewBox="0 0 375 374.999991" version="1.2">
<g id="surface1">
<path style=" stroke:none;fill-rule:nonzero;fill:rgb(100%,100%,100%);fill-opacity:1;" d="M 8.699219 100.539062 C 5.960938 100.539062 3.75 98.324219 3.75 95.585938 L 3.75 36.9375 C 3.75 18.636719 18.636719 3.75 36.898438 3.75 L 95.476562 3.75 C 98.210938 3.75 100.425781 5.960938 100.425781 8.699219 C 100.425781 11.4375 98.210938 13.648438 95.476562 13.648438 L 36.898438 13.648438 C 24.074219 13.648438 13.613281 24.113281 13.613281 36.9375 L 13.613281 95.625 C 13.613281 98.324219 11.398438 100.539062 8.699219 100.539062 Z M 8.699219 100.539062 "/>
<path style=" stroke:none;fill-rule:nonzero;fill:rgb(100%,100%,100%);fill-opacity:1;" d="M 97.125 371.25 L 36.898438 371.25 C 18.636719 371.25 3.75 356.363281 3.75 338.0625 L 3.75 279.449219 C 3.75 276.710938 5.960938 274.5 8.699219 274.5 C 11.4375 274.5 13.648438 276.710938 13.648438 279.449219 L 13.648438 338.0625 C 13.648438 350.886719 24.113281 361.351562 36.9375 361.351562 L 97.125 361.351562 C 99.863281 361.351562 102.074219 363.5625 102.074219 366.300781 C 102.074219 369.039062 99.863281 371.25 97.125 371.25 Z M 97.125 371.25 "/>
<path style=" stroke:none;fill-rule:nonzero;fill:rgb(100%,100%,100%);fill-opacity:1;" d="M 338.0625 371.25 L 276.789062 371.25 C 274.050781 371.25 271.835938 369.039062 271.835938 366.300781 C 271.835938 363.5625 274.050781 361.351562 276.789062 361.351562 L 338.0625 361.351562 C 350.925781 361.351562 361.351562 350.886719 361.351562 338.0625 L 361.351562 279.039062 C 361.351562 276.300781 363.5625 274.085938 366.300781 274.085938 C 369.039062 274.085938 371.25 276.300781 371.25 279.039062 L 371.25 338.0625 C 371.25 356.363281 356.363281 371.25 338.0625 371.25 Z M 338.0625 371.25 "/>
<path style=" stroke:none;fill-rule:nonzero;fill:rgb(100%,100%,100%);fill-opacity:1;" d="M 366.300781 100.085938 C 363.5625 100.085938 361.351562 97.875 361.351562 95.136719 L 361.351562 36.9375 C 361.351562 24.074219 350.886719 13.648438 338.0625 13.648438 L 278.925781 13.648438 C 276.1875 13.648438 273.976562 11.4375 273.976562 8.699219 C 273.976562 5.960938 276.1875 3.75 278.925781 3.75 L 338.0625 3.75 C 356.363281 3.75 371.25 18.636719 371.25 36.9375 L 371.25 95.136719 C 371.25 97.875 369.039062 100.085938 366.300781 100.085938 Z M 366.300781 100.085938 "/>
<path style=" stroke:none;fill-rule:nonzero;fill:rgb(100%,100%,100%);fill-opacity:1;" d="M 362.851562 192.449219 L 14.101562 192.449219 C 11.363281 192.449219 9.148438 190.238281 9.148438 187.5 C 9.148438 184.761719 11.363281 182.550781 14.101562 182.550781 L 362.851562 182.550781 C 365.585938 182.550781 367.800781 184.761719 367.800781 187.5 C 367.761719 190.238281 365.550781 192.449219 362.851562 192.449219 Z M 362.851562 192.449219 "/>
</g>
</svg>
